<svg viewBox="0 0 300 500" xmlns="http://www.w3.org/2000/svg">
  <!-- White background -->
  <rect width="100%" height="100%" fill="white"/>
  
  <!-- Boxes -->
  <rect x="75" y="20" width="150" height="60" stroke="black" fill="white" stroke-width="1"/>
  <rect x="75" y="130" width="150" height="60" stroke="black" fill="white" stroke-width="1"/>
  <rect x="75" y="240" width="150" height="60" stroke="black" fill="white" stroke-width="1"/>
  <rect x="75" y="350" width="150" height="60" stroke="black" fill="white" stroke-width="1"/>
  <rect x="75" y="460" width="150" height="60" stroke="black" fill="white" stroke-width="1"/>
  
  <!-- Text -->
  <text x="150" y="50" text-anchor="middle" dominant-baseline="middle">application_routes</text>
  <text x="150" y="160" text-anchor="middle" dominant-baseline="middle">application_service</text>
  <text x="150" y="270" text-anchor="middle" dominant-baseline="middle">application_validator</text>
  <text x="150" y="380" text-anchor="middle" dominant-baseline="middle">applicant_validator</text>
  <text x="150" y="490" text-anchor="middle" dominant-baseline="middle">bidding_service</text>
  
  <!-- Arrows - all with equal length -->
  <line x1="150" y1="80" x2="150" y2="120" stroke="black" stroke-width="1"/>
  <line x1="150" y1="190" x2="150" y2="230" stroke="black" stroke-width="1"/>
  <line x1="150" y1="300" x2="150" y2="340" stroke="black" stroke-width="1"/>
  <line x1="150" y1="410" x2="150" y2="450" stroke="black" stroke-width="1"/>
  
  <!-- Arrow heads -->
  <polygon points="150,130 145,120 155,120" fill="black"/>
  <polygon points="150,240 145,230 155,230" fill="black"/>
  <polygon points="150,350 145,340 155,340" fill="black"/>
  <polygon points="150,460 145,450 155,450" fill="black"/>
</svg>
